<?xml version="1.0" standalone="no"?>
<!DOCTYPE svg PUBLIC "-//W3C//DTD SVG 20010904//EN"
 "http://www.w3.org/TR/2001/REC-SVG-20010904/DTD/svg10.dtd">
<svg version="1.0" xmlns="http://www.w3.org/2000/svg"
 width="944.000000pt" height="944.000000pt" viewBox="0 0 944.000000 944.000000"
 preserveAspectRatio="xMidYMid meet">
<metadata>
Created by potrace 1.11, written by Peter Selinger 2001-2013
</metadata>
<g transform="translate(0.000000,944.000000) scale(0.100000,-0.100000)"
fill="#000000" stroke="none">
<path d="M5550 9280 c0 -5 -8 -6 -17 -3 -12 5 -15 2 -10 -10 3 -9 2 -17 -4
-17 -6 0 -6 -6 0 -19 6 -10 8 -20 6 -23 -6 -6 -11 -118 -5 -118 3 0 5 -22 5
-50 0 -27 -2 -50 -5 -50 -3 0 -5 -16 -5 -35 0 -19 3 -35 7 -35 4 0 4 -10 -1
-22 -5 -13 -5 -32 -1 -43 4 -11 4 -34 -1 -52 -4 -18 -3 -35 2 -38 4 -3 4 -16
-1 -29 -5 -13 -6 -26 -3 -29 8 -8 7 -112 -1 -126 -4 -6 -2 -11 4 -11 7 0 8 -6
0 -19 -6 -12 -6 -22 -1 -25 5 -3 5 -21 1 -41 -4 -19 -5 -35 -1 -35 3 0 6 -22
6 -50 0 -27 -2 -50 -5 -50 -3 0 -5 -16 -5 -35 0 -19 3 -35 7 -35 4 0 4 -10 -1
-22 -5 -13 -5 -32 -1 -43 4 -11 4 -34 -1 -52 -4 -18 -4 -35 0 -37 8 -6 7 -48
-2 -63 -4 -5 -3 -13 1 -17 4 -4 7 -15 7 -24 0 -12 9 -17 33 -17 17 0 32 -3 32
-7 0 -3 13 -3 29 2 15 4 34 4 42 0 7 -5 20 -5 28 -1 9 5 25 5 36 1 11 -4 34
-4 51 0 18 4 38 4 44 0 7 -4 26 -4 41 0 16 5 29 6 29 2 0 -4 28 -8 63 -8 34
-1 78 -5 97 -8 19 -4 53 -9 74 -11 22 -3 54 -9 70 -14 17 -6 42 -12 56 -15 48
-8 185 -58 269 -98 178 -84 319 -185 461 -329 91 -93 210 -244 210 -268 0 -6
4 -11 8 -11 12 0 115 -209 146 -295 24 -69 65 -217 71 -259 10 -73 17 -126 19
-157 2 -20 6 -41 10 -47 3 -6 3 -13 -1 -15 -8 -5 -9 -108 0 -129 2 -7 1 -22
-3 -33 -4 -11 -4 -29 0 -41 5 -11 5 -27 0 -34 -4 -7 -4 -26 0 -41 5 -16 5 -31
0 -34 -5 -3 -6 -16 -1 -28 4 -12 5 -33 1 -47 -4 -14 -3 -37 1 -52 4 -15 4 -30
-1 -33 -5 -3 -6 -15 0 -29 4 -12 5 -28 1 -34 -8 -13 -6 -76 4 -91 3 -6 2 -11
-2 -11 -5 0 -9 -15 -9 -32 -1 -18 -4 -53 -8 -78 -4 -25 -9 -58 -11 -75 -4 -44
-31 -151 -55 -220 -11 -33 -23 -69 -25 -79 -3 -11 -9 -24 -15 -30 -5 -5 -10
-18 -10 -27 0 -10 -7 -25 -16 -33 -8 -9 -13 -16 -9 -16 8 0 -71 -146 -101
-187 -13 -17 -24 -36 -24 -41 0 -6 -3 -12 -7 -14 -5 -1 -21 -21 -38 -43 -59
-80 -168 -194 -255 -268 -171 -145 -461 -287 -659 -324 -14 -2 -28 -6 -32 -8
-4 -3 -27 -7 -50 -10 -24 -3 -51 -8 -61 -11 -13 -4 -200 -16 -233 -15 -95 4
-154 3 -161 -1 -5 -3 -18 -2 -29 2 -11 4 -32 4 -47 -1 -16 -4 -28 -5 -28 -1 0
8 -85 6 -106 -2 -8 -3 -14 -2 -14 2 0 4 -19 6 -42 4 -24 -1 -50 -3 -58 -2 -88
2 -121 1 -130 -5 -5 -3 -10 -3 -10 2 0 4 -16 8 -35 8 -19 0 -35 -3 -35 -7 0
-4 -12 -3 -27 1 -16 4 -40 4 -55 0 -16 -4 -28 -4 -28 -1 0 8 -63 8 -76 0 -5
-3 -18 -2 -29 2 -11 4 -30 4 -41 -1 -12 -4 -25 -5 -28 -2 -8 9 -76 9 -76 1 0
-4 -6 -5 -14 -2 -21 8 -106 10 -106 2 0 -4 -12 -3 -27 1 -16 4 -40 4 -55 0
-16 -4 -28 -4 -28 -1 0 4 -29 7 -65 7 -36 0 -65 -3 -65 -7 0 -4 -12 -3 -28 1
-15 5 -37 5 -49 0 -12 -4 -25 -4 -27 0 -3 5 -19 7 -36 5 l-30 -4 -1 58 c-1 31
-1 60 -1 63 1 10 3 92 3 169 1 92 1 74 0 205 0 61 0 143 2 183 1 39 -2 72 -6
72 -5 0 -5 5 -2 10 3 6 6 81 5 168 -1 86 -1 175 0 197 1 22 2 47 2 55 -1 8 -1
80 -1 160 0 80 0 152 0 160 0 8 0 44 0 80 0 36 1 70 1 75 -2 143 -1 244 1 303
1 39 -2 72 -6 72 -5 0 -5 5 -2 10 3 6 6 81 5 168 -1 86 -1 175 0 197 1 22 2
47 2 55 -1 8 -1 80 -1 160 0 80 0 152 0 160 0 8 0 44 0 80 0 36 1 70 1 75 -2
143 -1 244 1 303 1 39 -2 72 -6 72 -5 0 -5 5 -2 10 3 6 6 81 5 168 -2 156 -1
197 4 260 1 18 -1 35 -5 38 -5 3 -5 12 -2 21 10 25 -22 42 -62 33 -19 -4 -37
-4 -40 1 -3 4 -17 4 -30 -1 -14 -5 -25 -6 -25 -2 0 4 -25 7 -55 7 -30 0 -55
-3 -55 -7 0 -4 -11 -3 -25 2 -15 6 -26 6 -30 -1 -4 -5 -12 -6 -18 -2 -13 8
-86 8 -94 -1 -3 -2 -16 -1 -29 4 -14 6 -26 6 -29 -1 -4 -5 -12 -6 -18 -2 -16
10 -48 10 -69 0 -10 -4 -18 -4 -18 0 0 4 -11 8 -25 8 -14 0 -25 -4 -25 -8 0
-4 -9 -3 -19 3 -14 7 -22 7 -26 0 -4 -7 -11 -7 -18 -2 -7 5 -21 6 -32 2 -11
-4 -30 -4 -42 1 -13 5 -25 4 -28 -2 -4 -5 -12 -6 -18 -2 -16 10 -48 10 -69 0
-10 -4 -18 -4 -18 0 0 4 -11 8 -25 8 -14 0 -25 -4 -25 -8 0 -4 -9 -3 -19 3
-14 7 -22 7 -26 0 -4 -7 -11 -7 -18 -2 -7 5 -21 6 -32 2 -11 -4 -30 -4 -42 1
-13 5 -25 4 -28 -2 -4 -5 -11 -7 -16 -3 -14 8 -89 11 -89 2 0 -3 -10 -4 -22 0
-17 4 -20 2 -15 -11 3 -9 2 -19 -3 -22 -6 -4 -6 -14 1 -28 9 -15 9 -22 1 -25
-7 -2 -8 -11 -2 -28 5 -13 6 -24 2 -24 -8 0 -7 -68 2 -77 3 -3 1 -14 -4 -24
-6 -10 -6 -20 -2 -23 5 -3 6 -28 2 -56 -4 -28 -3 -53 1 -56 5 -3 4 -16 -1 -29
-5 -13 -6 -27 -1 -29 4 -3 5 -26 1 -51 -4 -25 -3 -48 1 -51 5 -2 4 -16 -1 -29
-5 -13 -6 -27 -1 -29 4 -3 5 -26 1 -51 -4 -25 -3 -45 2 -45 5 0 4 -8 -1 -18
-6 -11 -6 -24 0 -34 5 -9 6 -19 1 -22 -6 -3 -8 -61 -2 -61 1 0 2 -21 3 -48 1
-26 0 -47 -3 -47 -5 0 -4 -58 0 -70 1 -3 1 -9 0 -15 -6 -26 -5 -77 2 -88 3 -6
3 -18 -2 -28 -5 -9 -7 -19 -3 -22 7 -8 10 -97 3 -97 -3 0 -5 -20 -5 -45 0 -25
4 -45 8 -45 4 0 3 -8 -2 -18 -6 -11 -6 -24 0 -34 5 -9 6 -19 1 -22 -6 -3 -8
-61 -2 -61 1 0 2 -21 3 -48 1 -26 0 -47 -3 -47 -5 0 -4 -58 0 -70 1 -3 1 -9 0
-15 -6 -26 -5 -77 2 -88 3 -6 3 -18 -2 -28 -5 -9 -7 -19 -3 -22 7 -8 10 -97 3
-97 -7 0 -4 -89 3 -96 3 -4 2 -17 -3 -30 -5 -13 -6 -26 -1 -28 4 -3 5 -26 1
-51 -4 -25 -3 -48 1 -51 5 -2 4 -16 -1 -29 -5 -13 -5 -27 -1 -29 5 -3 5 -23 1
-45 -4 -22 -4 -45 1 -52 4 -7 3 -21 -2 -30 -5 -10 -5 -20 -1 -23 5 -3 6 -28 2
-56 -4 -27 -3 -50 2 -50 5 0 4 -8 -1 -18 -6 -11 -6 -24 0 -34 5 -9 6 -19 1
-22 -6 -3 -8 -61 -2 -61 1 0 2 -21 3 -48 1 -26 -1 -47 -4 -47 -7 0 -3 -55 5
-69 4 -5 2 -12 -4 -16 -7 -4 -7 -12 0 -25 6 -12 7 -21 0 -25 -5 -3 -6 -15 -1
-27 4 -12 5 -37 1 -55 -5 -18 -4 -35 1 -38 4 -3 4 -17 -1 -30 -5 -13 -6 -27
-1 -29 4 -3 5 -26 1 -51 -4 -25 -3 -48 1 -51 5 -2 4 -16 -1 -29 -5 -13 -6 -27
-1 -29 4 -3 5 -26 1 -51 -4 -25 -3 -45 2 -45 5 0 4 -8 -1 -18 -6 -11 -6 -24 0
-34 5 -9 6 -19 1 -22 -6 -3 -8 -61 -2 -61 1 0 2 -21 3 -48 1 -26 0 -47 -3 -47
-5 0 -4 -58 0 -70 1 -3 1 -9 0 -15 -6 -26 -5 -77 2 -88 3 -6 3 -18 -2 -28 -5
-9 -7 -19 -3 -22 8 -9 9 -97 1 -97 -4 0 -5 -7 -1 -16 8 -23 -13 -33 -52 -24
-18 4 -39 4 -46 -1 -7 -4 -17 -5 -22 -2 -12 7 -96 8 -103 0 -3 -3 -18 -2 -32
2 -15 4 -39 4 -54 0 -16 -4 -28 -4 -28 -1 0 8 -63 8 -76 0 -5 -3 -18 -2 -29 2
-11 4 -30 4 -41 -1 -12 -4 -25 -5 -28 -2 -8 9 -76 9 -76 1 0 -4 -6 -5 -14 -2
-21 8 -106 10 -106 2 0 -4 -12 -3 -27 1 -16 4 -40 4 -56 0 -15 -4 -27 -4 -27
-1 0 4 -16 7 -35 7 -19 0 -35 -3 -35 -7 0 -4 -13 -3 -29 2 -16 4 -32 6 -35 2
-6 -6 -10 16 -6 33 5 21 2 104 -5 114 -3 6 -1 11 5 11 6 0 8 5 5 11 -4 6 -7
34 -6 62 3 122 2 147 -3 156 -4 5 -2 12 4 16 6 4 7 11 4 17 -4 6 -6 31 -5 57
3 113 3 140 -4 150 -3 6 -1 11 5 11 6 0 8 5 5 11 -4 6 -7 33 -6 60 1 27 1 72
2 100 1 27 -1 53 -5 56 -3 3 -1 14 5 24 5 11 6 19 1 19 -5 0 -8 10 -8 23 1 21
-3 22 -72 23 -40 1 -75 4 -78 6 -2 3 -19 2 -37 -1 -18 -4 -49 -4 -69 0 -21 3
-38 4 -38 0 0 -8 -204 -5 -225 3 -8 3 -15 2 -15 -2 0 -6 -67 -7 -95 -2 -6 2
-14 1 -20 0 -5 -1 -41 -1 -80 -1 -38 1 -76 1 -82 1 -7 0 -33 0 -58 0 -63 0
-73 0 -87 -1 -7 0 -39 0 -71 1 -32 2 -60 0 -63 -3 -3 -2 -20 -1 -39 3 -19 4
-37 5 -40 2 -3 -3 -28 -5 -55 -5 -27 1 -52 -2 -55 -8 -4 -5 -3 -9 2 -9 4 0 8
-22 8 -50 0 -27 -3 -50 -6 -50 -7 0 -3 -55 5 -69 4 -5 2 -12 -4 -16 -7 -4 -7
-12 0 -25 6 -12 7 -21 0 -25 -5 -3 -6 -15 -1 -27 4 -12 5 -37 1 -55 -5 -18 -4
-36 1 -39 5 -3 5 -13 -1 -24 -6 -10 -6 -21 -2 -24 5 -3 6 -28 2 -56 -4 -27 -3
-50 2 -50 5 0 4 -8 -1 -18 -6 -11 -6 -24 0 -34 5 -9 6 -19 1 -22 -6 -3 -8 -61
-2 -61 1 0 2 -21 3 -48 1 -26 -1 -47 -4 -47 -7 0 -3 -55 5 -69 4 -5 2 -12 -4
-16 -7 -4 -7 -12 0 -25 6 -12 7 -21 0 -25 -6 -3 -6 -15 0 -30 6 -15 6 -27 -1
-30 -5 -4 -7 -11 -3 -16 3 -6 7 -41 9 -77 3 -58 10 -108 30 -211 6 -30 33
-119 45 -146 5 -11 19 -45 31 -75 20 -49 99 -188 121 -215 5 -5 19 -25 32 -43
54 -75 166 -182 281 -270 88 -66 310 -170 398 -186 7 -1 21 -5 32 -9 11 -4 34
-9 50 -11 17 -3 41 -7 55 -11 14 -3 60 -7 103 -9 42 -2 80 -5 83 -9 3 -3 16
-2 28 3 12 4 29 4 37 0 8 -5 21 -5 28 0 8 4 27 4 42 0 16 -5 29 -6 29 -2 0 4
16 7 35 7 19 0 35 -3 35 -7 0 -4 13 -3 30 2 17 5 32 5 35 0 3 -5 16 -5 28 -1
12 5 34 5 49 0 16 -4 28 -5 28 -1 0 4 16 7 35 7 19 0 35 -3 35 -7 0 -4 13 -3
30 2 16 5 32 5 35 0 3 -5 18 -5 33 -1 15 5 37 5 49 0 12 -4 25 -4 28 0 3 5 20
6 37 2 18 -4 48 -4 66 0 17 3 32 3 32 -1 0 -4 20 -4 45 0 25 4 45 3 45 -1 0
-5 11 -5 23 0 13 5 30 6 37 1 7 -4 19 -6 25 -3 15 5 25 -59 13 -81 -5 -8 -4
-17 0 -20 5 -3 6 -28 2 -56 -4 -27 -3 -50 2 -50 5 0 4 -8 -1 -18 -6 -11 -6
-24 0 -34 5 -9 6 -19 1 -22 -6 -3 -8 -61 -2 -61 1 0 2 -21 3 -48 1 -26 -1 -47
-4 -47 -7 0 -3 -55 5 -69 4 -5 2 -12 -4 -16 -7 -4 -7 -12 0 -25 6 -12 7 -21 0
-25 -5 -3 -6 -15 -1 -28 5 -12 5 -34 1 -48 -4 -15 -4 -32 0 -40 5 -7 4 -21 -1
-30 -5 -10 -5 -20 -1 -23 5 -3 6 -28 2 -56 -4 -27 -3 -50 2 -50 5 0 4 -8 -1
-18 -6 -11 -6 -24 0 -34 5 -9 6 -19 1 -22 -6 -3 -8 -61 -2 -61 1 0 2 -21 3
-48 1 -26 -1 -47 -4 -47 -7 0 -3 -55 5 -69 4 -5 2 -12 -4 -16 -7 -4 -7 -12 0
-25 6 -12 7 -21 0 -25 -5 -3 -6 -15 -1 -27 4 -12 5 -37 1 -55 -5 -18 -4 -35 1
-38 4 -3 4 -17 -1 -30 -5 -13 -6 -27 -1 -29 4 -3 5 -26 1 -51 -4 -25 -3 -48 1
-51 5 -2 4 -16 -1 -29 -5 -13 -5 -27 -1 -29 5 -3 5 -23 1 -45 -4 -22 -4 -45 1
-52 4 -7 3 -21 -2 -30 -5 -10 -5 -20 -1 -23 5 -3 6 -28 2 -56 -4 -27 -3 -50 2
-50 5 0 4 -8 -1 -18 -6 -11 -6 -24 0 -34 5 -9 6 -19 1 -22 -6 -3 -8 -61 -2
-61 1 0 2 -21 3 -48 1 -26 -1 -47 -4 -47 -7 0 -3 -55 5 -69 4 -5 2 -12 -4 -16
-7 -4 -7 -12 0 -25 6 -12 7 -21 0 -25 -5 -3 -6 -15 -1 -27 4 -12 5 -37 1 -55
-5 -18 -4 -35 1 -38 4 -3 4 -17 -1 -30 -5 -13 -6 -27 -1 -29 4 -3 5 -26 1 -51
-4 -25 -3 -48 1 -51 5 -2 4 -16 -1 -29 -5 -13 -6 -27 -1 -29 4 -3 5 -26 1 -51
-4 -25 -3 -45 2 -45 5 0 4 -8 -1 -18 -6 -11 -6 -24 0 -34 6 -10 6 -19 0 -23
-7 -3 -7 -15 -1 -30 6 -15 6 -27 0 -30 -6 -3 -6 -15 0 -30 6 -15 6 -27 0 -30
-7 -4 -7 -13 0 -24 6 -12 5 -22 -1 -28 -8 -8 -7 -13 0 -17 6 -4 11 -5 11 -2 0
3 11 1 25 -4 15 -6 27 -6 30 0 3 6 15 6 30 0 15 -6 27 -6 30 0 3 6 15 6 30 0
15 -6 27 -6 30 0 3 6 15 6 30 0 16 -6 27 -6 31 1 3 6 10 6 17 1 7 -5 21 -6 32
-2 11 4 27 4 36 -1 8 -4 21 -4 29 1 7 4 24 4 36 0 14 -6 26 -5 29 0 3 6 15 6
30 0 15 -6 27 -6 30 1 4 5 11 6 17 3 13 -8 144 -8 158 1 5 3 10 2 10 -3 0 -5
17 -6 40 -2 22 4 40 4 40 0 0 -4 16 -4 35 0 19 4 35 4 35 -1 0 -5 10 -5 23 -1
12 5 36 6 52 2 17 -3 45 -3 63 1 17 4 32 3 32 -1 0 -4 18 -4 40 0 22 4 40 4
40 0 0 -4 16 -4 35 0 21 5 35 4 35 -2 0 -5 5 -6 11 -3 14 9 103 10 116 2 10
-6 18 96 13 158 -2 25 -2 21 0 135 0 52 1 145 1 205 -1 61 0 143 2 183 1 39
-2 72 -6 72 -5 0 -6 4 -2 9 5 9 6 86 6 376 -1 61 0 143 2 183 1 39 -2 72 -6
72 -5 0 -6 4 -3 8 6 10 10 207 7 347 -1 11 0 40 0 65 0 25 1 52 0 60 0 8 0 53
0 100 0 47 0 92 0 100 -1 8 0 35 0 60 0 25 1 50 1 55 0 49 -1 254 -1 270 0 11
0 49 0 85 0 36 1 70 0 75 -2 204 0 250 7 257 10 10 37 12 68 5 11 -3 27 -2 34
3 7 4 26 4 41 0 16 -5 29 -5 29 -1 0 5 18 5 39 1 22 -4 45 -4 52 0 6 4 25 4
40 0 16 -5 29 -5 29 -1 0 5 18 5 40 1 22 -4 40 -4 40 0 0 4 17 4 38 1 20 -4
48 -4 62 -1 14 4 32 3 41 -1 8 -4 21 -4 28 1 8 4 27 4 42 0 16 -5 29 -5 29 -1
0 5 18 5 40 1 22 -4 40 -4 40 0 0 4 17 4 38 1 20 -4 48 -4 62 -1 14 4 32 3 41
-1 8 -4 21 -4 28 1 8 4 27 4 42 0 16 -5 29 -5 29 -1 0 5 18 5 40 1 22 -4 40
-4 40 0 0 4 17 4 38 1 20 -4 48 -4 62 -1 14 4 32 3 41 -1 8 -4 21 -4 28 1 8 4
27 4 42 0 16 -5 29 -5 29 -1 0 5 18 5 40 1 23 -4 40 -3 40 2 0 5 4 7 10 3 10
-6 65 -7 138 -3 23 2 42 0 42 -4 0 -4 13 -3 30 2 18 5 32 5 36 -1 3 -5 9 -7
14 -4 5 3 49 8 97 10 48 3 115 7 148 11 33 4 71 8 85 9 47 5 115 16 135 22 11
3 31 7 45 9 14 2 45 8 70 14 25 6 56 13 70 15 14 2 26 4 28 6 1 1 5 2 10 3 4
2 27 8 52 16 25 7 51 13 58 13 6 0 12 4 12 9 0 4 8 8 18 8 9 1 35 8 57 16 22
8 47 16 55 19 69 17 459 204 490 235 3 3 15 11 28 18 12 6 32 18 45 25 12 6
24 14 27 17 14 14 80 60 86 60 3 0 23 14 43 30 20 17 41 34 46 38 116 85 331
288 430 407 28 33 55 65 60 71 6 6 19 23 30 39 11 15 29 39 41 54 37 46 144
209 144 219 0 6 4 12 8 14 10 3 14 11 95 168 64 123 132 285 166 395 13 39 26
79 31 90 8 21 28 94 35 130 2 11 4 20 5 20 2 0 6 21 13 62 3 17 7 35 10 40 3
4 8 28 11 53 3 25 8 54 10 65 4 19 9 58 21 165 3 25 8 84 10 133 2 48 6 91 9
95 2 4 1 14 -4 22 -4 7 -4 23 0 36 5 12 6 24 3 28 -7 7 -10 96 -3 96 7 0 4 89
-3 97 -4 3 -2 13 3 22 5 10 5 23 1 30 -5 7 -5 30 -1 51 4 21 4 44 -1 51 -4 7
-3 21 2 30 5 11 5 20 0 23 -5 3 -5 21 -1 40 4 19 6 37 3 39 -2 3 -6 60 -8 128
-3 68 -7 133 -9 144 -2 12 -7 48 -11 80 -3 33 -10 80 -15 105 -5 25 -12 61
-14 80 -3 19 -17 80 -32 135 -14 55 -27 105 -28 110 -8 35 -40 132 -46 140 -4
6 -13 31 -20 58 -7 26 -17 50 -21 53 -5 3 -9 12 -9 21 0 17 -157 345 -169 353
-4 3 -14 20 -22 38 -8 17 -17 32 -21 32 -5 0 -8 7 -8 15 0 8 -4 15 -10 15 -5
0 -10 4 -10 9 0 12 -61 105 -72 109 -4 2 -8 8 -8 13 0 8 -73 106 -115 156 -5
6 -26 31 -45 54 -45 55 -253 263 -310 312 -122 102 -291 227 -309 227 -5 0
-14 7 -21 15 -23 27 -334 192 -445 235 -11 5 -41 17 -67 29 -26 12 -55 21 -63
21 -8 0 -24 5 -35 10 -11 6 -29 15 -41 21 -12 6 -23 8 -26 5 -3 -3 -18 1 -34
10 -16 8 -29 12 -29 10 0 -3 -12 -1 -27 5 -16 6 -36 13 -45 15 -10 2 -28 6
-40 10 -13 3 -34 7 -48 10 -14 3 -41 9 -60 14 -19 5 -53 11 -75 15 -23 3 -52
7 -65 10 -13 2 -46 7 -74 10 -28 3 -64 8 -81 11 -16 2 -72 6 -123 9 -51 2 -96
7 -101 10 -5 3 -12 1 -15 -4 -4 -6 -18 -6 -36 -1 -18 5 -30 5 -30 0 0 -6 -10
-6 -25 0 -13 5 -27 6 -29 1 -6 -9 -54 -7 -63 3 -3 2 -16 1 -29 -4 -14 -6 -26
-6 -29 0 -3 5 -15 6 -28 1 -12 -5 -34 -5 -49 0 -16 4 -28 4 -28 -1z"/>
</g>
</svg>
