<?xml version="1.0" encoding="utf-8" standalone="no"?>
<!DOCTYPE svg PUBLIC "-//W3C//DTD SVG 1.1//EN" "http://www.w3.org/Graphics/SVG/1.1/DTD/svg11.dtd">
<svg id="twitter" version="1.1" xmlns="http://www.w3.org/2000/svg" xmlns:xlink="http://www.w3.org/1999/xlink" x="0px" y="0px" viewBox="0 0 1000 1000" enable-background="new 0 0 1000 1000" xml:space="preserve">
  <g><path d="M788,337.8c3.6-6.7,6.6-13.7,8.9-21.1c2.2-6.9-0.1-14.5-5.8-19c-5.7-4.5-13.6-5-19.8-1.4c-16.8,10-34.9,17.4-53.9,22c-22.9-20.7-52.9-32.3-83.9-32.3c-68.9,0-125,56.1-125,124.9c0,1.7,0,3.4,0.1,5.2c-73.2-9.1-140.7-46.3-187.8-104.1c-3.6-4.4-9.2-6.8-14.9-6.4c-5.7,0.5-10.9,3.7-13.7,8.7c-11.1,19-16.9,40.7-16.9,62.8c0,21,5.2,41.1,14.8,59c-2.4,0.4-4.8,1.3-7,2.6c-5.3,3.2-8.6,9.6-8.6,15.8c0,37.2,16.5,71.3,43.2,94.5c-0.4,0.4-0.8,0.8-1.2,1.2c-4.1,4.7-5.4,11.1-3.5,17c11.5,35.8,38.1,63.7,71.5,77.4c-34.1,16.9-73.7,23.5-111.5,19c-8-0.7-15.8,3.8-18.5,11.5c-2.7,7.7,0.2,16.2,7,20.6c52.1,33.4,112.3,51,174.2,51c202.4,0,323.3-164.4,323.3-323.3c0-1.8,0-3.6,0-5.4c19.6-15.3,36.5-33.5,50.5-54.4c4.3-6.5,3.9-15-1.2-21C803.2,336.8,795.1,334.8,788,337.8L788,337.8z M730.8,395.3c-4.8,3.5-7.6,9.1-7.3,15.1c0.2,4.3,0.3,8.7,0.3,13c0,141.7-107.8,288.3-288.3,288.3c-32.4,0-64.3-5.4-94.5-16c36.2-6.9,70.1-22.3,99.7-45.5c5.8-4.6,8.2-12.3,5.8-19.3c-2.4-7-8.9-11.8-16.3-11.9c-29.2-0.6-55.6-15.1-71.8-38.1c8.3-0.6,16.4-1.9,24.3-4.1c7.8-2.1,13.1-9.4,12.9-17.5c-0.3-8.1-6.1-15-14-16.6c-32.8-6.6-58.6-30.9-68.1-62.4c8.7,2.2,17.6,3.5,26.6,3.8c7.7,0,14.8-4.8,17.2-12.2s-0.4-15.5-6.9-19.9c-25-16.8-40-44.7-40-74.9c0-7.3,0.9-14.5,2.6-21.5c56.7,58.1,133.6,93.2,215.1,97.3c5.8,0,10.8-2,14.3-6.2c3.5-4.2,4.8-9.8,3.6-15.2c-1.5-6.6-2.3-13.6-2.3-20.5c0-49.6,40.4-89.9,90-89.9c24.8,0,48.7,10.4,65.7,28.4c4.1,4.4,10.2,6.3,16.2,5.2c5.4-1.1,10.7-2.3,16-3.8c-2.3,1.8-4.8,3.4-7.4,4.9c-7.1,4.2-10.2,12.9-7.6,20.7c2.7,7.8,10.6,12.9,18.6,11.7c2-0.2,4-0.5,6-0.8C737.7,390.2,734.3,392.8,730.8,395.3L730.8,395.3L730.8,395.3z"></path><path d="M500,10C229.4,10,10,229.3,10,500c0,270.6,219.4,490,490,490s490-219.5,490-490C990,229.3,770.7,10,500,10z M826.6,826.6c-42.4,42.4-91.7,75.7-146.7,99c-56.9,24.1-117.3,36.3-179.8,36.3c-62.3,0-122.9-12.2-179.8-36.3c-55-23.2-104.4-56.5-146.8-99c-42.4-42.4-75.7-91.9-99-146.9C50.4,622.9,38.2,562.3,38.2,500c0-62.3,12.2-122.8,36.3-179.8c23.2-55,56.6-104.3,99-146.8c42.4-42.4,91.8-75.7,146.8-99c57-24,117.5-36.3,179.8-36.3c62.4,0,122.9,12.3,179.8,36.3c55,23.2,104.3,56.6,146.7,99c42.4,42.5,75.7,91.8,99.1,146.8c24,56.9,36.3,117.3,36.3,179.8c0,62.4-12.3,123-36.3,179.8C902.3,734.7,869,784.2,826.6,826.6z"></path></g></svg>
